<?xml version="1.0" standalone="no"?>
<!DOCTYPE svg PUBLIC "-//W3C//DTD SVG 20010904//EN"
 "http://www.w3.org/TR/2001/REC-SVG-20010904/DTD/svg10.dtd">
<svg version="1.0" xmlns="http://www.w3.org/2000/svg"
 width="128.000000pt" height="128.000000pt" viewBox="0 0 128.000000 128.000000"
 preserveAspectRatio="xMidYMid meet">

<g transform="translate(0.000000,128.000000) scale(0.100000,-0.100000)"
fill="#000000" stroke="none">
<path d="M493 1270 c-83 -18 -153 -73 -195 -153 -29 -56 -37 -186 -15 -239 15
-36 15 -36 -15 -65 -17 -15 -41 -50 -54 -78 -23 -48 -24 -59 -24 -272 l0 -223
-95 0 -95 0 0 -120 0 -120 640 0 640 0 0 120 0 120 -95 0 -95 0 0 223 c0 213
-1 224 -24 272 -13 28 -37 63 -54 78 -30 29 -30 29 -15 65 22 53 14 183 -15
239 -30 57 -86 111 -141 136 -37 16 -71 21 -176 23 -71 2 -149 -1 -172 -6z
m288 -70 c44 -12 97 -47 116 -77 15 -22 15 -22 -34 -16 -38 4 -61 0 -96 -15
-66 -29 -87 -68 -87 -159 l0 -73 -40 0 -40 0 0 73 c0 91 -21 130 -87 159 -35
15 -58 19 -95 15 -45 -6 -48 -5 -38 13 13 25 64 60 109 76 43 16 241 18 292 4z
m-280 -179 c22 -18 23 -21 8 -36 -9 -9 -34 -19 -56 -22 -32 -4 -45 -1 -68 20
l-29 24 30 16 c40 22 87 21 115 -2z m384 7 c32 -14 32 -33 0 -54 -30 -20 -90
-14 -114 11 -15 15 -14 18 8 36 26 22 68 25 106 7z m-422 -135 c18 3 40 8 50
12 13 6 17 2 17 -19 0 -18 -8 -30 -30 -41 -16 -8 -40 -27 -53 -41 l-25 -26
-31 45 c-17 25 -35 57 -40 70 l-10 25 45 -15 c25 -8 60 -13 77 -10z m467 1
c-6 -14 -24 -46 -41 -71 l-31 -45 -25 26 c-13 14 -37 33 -53 41 -22 11 -30 23
-30 41 0 21 4 25 18 19 37 -15 89 -16 127 -1 22 8 41 15 42 15 1 1 -2 -11 -7
-25z m-160 -124 c11 -11 20 -24 20 -30 0 -6 -57 -10 -150 -10 -93 0 -150 4
-150 10 0 6 9 19 20 30 18 18 33 20 130 20 97 0 112 -2 130 -20z m-233 -260
c98 -135 183 -251 187 -258 5 -9 -7 -12 -51 -12 l-59 0 -169 220 c-94 121
-171 226 -173 234 -2 8 11 31 29 51 26 29 34 34 44 23 7 -7 93 -123 192 -258z
m469 198 c4 -13 -30 -63 -126 -183 -73 -91 -136 -165 -140 -165 -8 0 -70 79
-70 90 0 3 13 11 28 18 19 8 67 66 137 163 l108 150 28 -27 c16 -15 31 -36 35
-46z m-246 -56 c0 -13 -79 -116 -96 -125 -29 -17 -61 3 -102 62 -23 32 -42 62
-42 65 0 3 54 6 120 6 66 0 120 -4 120 -8z m-366 -240 c69 -89 126 -164 126
-167 0 -3 -60 -4 -132 -3 l-133 3 -3 168 c-1 103 1 167 7 165 5 -1 66 -76 135
-166z m634 1 l-3 -168 -105 0 c-102 0 -105 1 -119 26 -15 26 -13 29 98 168 62
77 117 141 122 141 6 0 8 -69 7 -167z m182 -293 l0 -50 -570 0 -570 0 0 50 0
50 570 0 570 0 0 -50z"/>
</g>
</svg>
